<?xml version="1.0" encoding="utf-8"?>
<!-- Generator: Adobe Illustrator 24.1.2, SVG Export Plug-In . SVG Version: 6.00 Build 0)  -->
<svg version="1.1" id="Layer_1" xmlns="http://www.w3.org/2000/svg" xmlns:xlink="http://www.w3.org/1999/xlink" x="0px" y="0px"
	 viewBox="0 0 400 400" style="enable-background:new 0 0 400 400;" xml:space="preserve">
<style type="text/css">
	.st0{fill:#001965;stroke:#001965;stroke-width:2;stroke-miterlimit:10;}
	.st1{opacity:0.15;fill:#2A918B;}
	.st2{opacity:0.25;fill:#2A918B;}
	.st3{fill:#2A918B;}
	.st4{opacity:0.15;fill:#3B97DE;}
	.st5{opacity:0.25;fill:#3B97DE;}
	.st6{fill:#3B97DE;}
	.st7{opacity:0.15;fill:#CCC5BD;}
	.st8{opacity:0.25;fill:#CCC5BD;}
	.st9{fill:#CCC5BD;}
	.st10{fill:#3F9C35;}
	.st11{fill:#E6553F;}
	.st12{fill:#EAAB00;}
	.st13{fill:#FAB500;}
	.st14{opacity:0.15;fill:#939AA7;}
	.st15{opacity:0.25;fill:#939AA7;}
	.st16{fill:#939AA7;}
	.st17{opacity:0.15;fill:#005AD2;}
	.st18{opacity:0.25;fill:#005AD2;}
	.st19{fill:#005AD2;}
	.st20{opacity:0.15;fill:#EEA7BF;}
	.st21{opacity:0.25;fill:#EEA7BF;}
	.st22{fill:#EEA7BF;}
	.st23{fill:#001965;}
	.st24{fill:#FFFFFF;}
	.st25{fill:none;stroke:#001965;stroke-width:1.890603;stroke-linecap:round;stroke-miterlimit:10;}
	.st26{fill:none;stroke:#001965;stroke-width:2.062476;stroke-linecap:round;stroke-miterlimit:10;}
	.st27{fill:none;stroke:#001965;stroke-width:1.71873;stroke-linecap:round;stroke-miterlimit:10;}
	.st28{fill:none;stroke:#001965;stroke-width:1.71873;stroke-miterlimit:10;}
	.st29{fill:none;stroke:#001965;stroke-width:2.5;stroke-linecap:round;stroke-miterlimit:10;}
	.st30{fill:none;stroke:#001965;stroke-width:2.5;stroke-miterlimit:10;}
	.st31{fill:none;stroke:#001965;stroke-width:2.5;stroke-miterlimit:10;stroke-dasharray:4.767766,4.767766;}
	.st32{fill:none;stroke:#001956;stroke-width:1.71873;stroke-linecap:round;stroke-miterlimit:10;}
	.st33{fill:none;stroke:#001956;stroke-width:1.71873;stroke-linecap:round;stroke-miterlimit:10;stroke-dasharray:6.874921;}
	.st34{fill:none;stroke:#001965;stroke-width:1.71873;stroke-linecap:round;stroke-miterlimit:10;stroke-dasharray:6.874921;}
	.st35{fill:none;stroke:#FFFFFF;stroke-width:1.71873;stroke-miterlimit:10;}
	.st36{fill:none;stroke:#001965;stroke-width:1.690153;stroke-miterlimit:10;}
	.st37{fill:#FFFFFF;stroke:#001965;stroke-width:1.690153;stroke-miterlimit:10;}
	.st38{fill:none;stroke:#001965;stroke-width:1.690153;stroke-miterlimit:10;stroke-dasharray:6.944793,6.944793;}
	.st39{fill:#EFF0F2;}
	.st40{fill:none;stroke:#001965;stroke-width:2;stroke-miterlimit:10;}
</style>
<g>
	<path class="st39" d="M398.999969,1.000032v397.999878h-398V1.000032H398.999969 M399.999969,0.000032h-400v399.999878h400
		V0.000032L399.999969,0.000032z"/>
</g>
<g>
	<g>
		<g>
			<g>
				<g>
					<g>
						<path class="st23" d="M197.648361,267.356476v-14.863007c0-2.529633-0.040009-7.093048-8.735336-7.093048
							c-3.294952,0-5.543839,0.641632-6.75415,1.031616c-1.469147,0.470917-1.948593,1.02861-1.948593,1.765869v19.199707
							c0,0.735809,0.213089,0.818237,0.827072,0.818237h2.118744c0.600723,0,0.911377-0.082428,0.911377-0.859375v-17.651672
							c0-0.996216,1.634903-1.977798,4.672455-1.977798c5.057144,0,5.057144,3.225739,5.057144,5.250626v14.378845
							c0,0.776947,0.261871,0.859375,0.95433,0.859375h2.383499C197.608353,268.133423,197.648361,267.740509,197.648361,267.356476
							z"/>
					</g>
					<path class="st23" d="M220.56369,257.155457c0-5.166718-1.651184-8.482208-4.157562-10.158325
						c-1.562408-1.07872-3.645615-1.59671-5.640045-1.59671c-1.9767,0-4.059921,0.51799-5.617859,1.59671
						c-2.509323,1.676117-4.153168,4.991608-4.153168,10.158325c0,5.122528,1.643845,8.435089,4.153168,10.114136
						c1.557938,1.075775,3.641159,1.601105,5.617859,1.601105c1.994431,0,4.077637-0.52533,5.640045-1.601105
						C218.912506,265.590546,220.56369,262.277985,220.56369,257.155457z M216.571808,257.155457
						c0,4.049774-0.822601,6.663269-2.029877,7.793457c-1.171829,1.119904-2.254883,1.418671-3.775848,1.418671
						c-1.509155,0-2.592194-0.298767-3.752136-1.418671c-1.222122-1.130188-2.043289-3.743683-2.043289-7.793457
						c0-4.096893,0.821167-6.710464,2.043289-7.846512c1.159943-1.111038,2.242981-1.41272,3.752136-1.41272
						c1.520966,0,2.604019,0.301682,3.775848,1.41272C215.749207,250.444992,216.571808,253.058563,216.571808,257.155457z"/>
					<g>
						<path class="st23" d="M235.989532,247.637268c0-1.554001-2.642487-2.236847-5.625275-2.236847
							c-2.337738,0-3.811371,0.382599-4.932816,0.682846c-1.476654,0.395859-1.997467,1.031555-1.997467,1.765869v19.636795
							c0,0.69458,0.263397,0.729919,0.870026,0.729919h2.204498c0.520798,0,0.78421-0.035339,0.78421-0.729919v-17.992996
							c0-1.167023,0.908417-1.94397,2.204483-1.94397c2.775665,0,3.201782,2.030762,4.67836,2.030762
							C235.172775,249.579727,235.989532,248.880753,235.989532,247.637268z"/>
					</g>
					<path class="st23" d="M255.034348,265.849579v-27.035965c0-0.776962-0.216049-0.87114-0.864044-0.87114h-2.127609
						c-0.725037,0-0.816772,0.264908-0.816772,0.955078v7.803772c-1.349304-0.700485-2.689758-1.171387-4.725632-1.171387
						c-6.708313,0-10.161606,6.327774-10.161606,11.625519c0,7.846497,4.36467,11.71524,10.95459,11.71524
						C250.524689,268.870697,255.034348,267.269592,255.034348,265.849579z M251.225922,264.601624
						c0,1.124298-1.819809,1.718842-3.81424,1.718842c-4.1931,0-7.181778-3.48468-7.181778-9.46521
						c0-5.215286,2.855515-8.704437,6.838531-8.704437c2.257751,0,3.33194,0.68721,4.157486,1.381821V264.601624z"/>
					<path class="st23" d="M264.423553,239.714279c-0.041412-1.287643-1.080078-2.158859-2.287354-2.158859
						c-1.384827,0-2.390991,0.952133-2.390991,2.288315c0,1.206711,0.875916,2.232391,2.334778,2.232391
						C263.562469,242.076126,264.462036,240.915054,264.423553,239.714279z M263.994507,267.444702v-20.713928
						c0-0.688721-0.174622-0.816727-0.864044-0.816727H260.8815c-0.736786,0-0.736786,0.251648-0.736786,0.816727v20.713928
						c0,0.601929,0,0.771149,0.64801,0.771149h2.337738C263.781494,268.215851,263.994507,268.180511,263.994507,267.444702z"/>
					<path class="st23" d="M302.400757,267.740509c0-0.207489-0.127197-0.342896-0.304749-0.565094l-8.217499-10.796997
						l-0.044373-0.047089c2.861511-2.10582,5.882751-5.462524,7.714386-9.08255
						c0.204254-0.429764,0.239685-0.600418,0.239685-0.859451c0-0.388489-0.215973-0.475281-0.775238-0.475281h-2.035889
						c-0.772308,0-1.118561-0.03685-1.340454,0.646011c-1.210297,3.696579-4.412079,7.665451-7.661133,9.553528
						c-0.127258,0.094177-0.168701,0.217743-0.168701,0.264832c0,0.088287,0.041443,0.170715,0.085815,0.217804l7.705536,10.979492
						c0.437927,0.640137,0.606628,0.640137,1.293121,0.640137h2.944305
						C301.97464,268.215851,302.400757,268.180511,302.400757,267.740509z M289.194244,267.575714v-29.149078
						c0-0.612183-0.295898-0.612183-0.825531-0.612183h-2.284424c-0.47641,0-0.736847,0.086807-0.736847,0.6931v29.025467
						c0,0.600403,0.130219,0.682831,0.736847,0.682831h2.284424C288.981232,268.215851,289.194244,268.215851,289.194244,267.575714
						z"/>
					<g>
						<path class="st23" d="M282.305481,262.194153c0-7.238708-10.652802-6.115906-10.652802-10.895569
							c0-1.636429,1.299042-3.319931,3.719574-3.319931c2.51828,0,3.16922,1.642288,4.459442,1.642288
							c0.65094,0,1.562408-0.387039,1.562408-1.512772c0-1.629044-2.814148-2.578232-5.799896-2.578232
							c-3.941528,0-7.394775,2.10733-7.394775,6.110031c0,3.702454,2.636566,5.297653,5.793884,6.628006
							c2.515228,1.043304,4.844116,1.985138,4.844116,4.355865c0,1.76593-1.429321,3.784882-4.4505,3.784882
							c-3.036102,0-3.906067-2.236786-5.373779-2.236786c-0.733826,0-1.648254,0.300171-1.648254,1.41861
							c0,1.76593,3.4711,3.280151,6.97467,3.280151C278.233765,268.870697,282.305481,266.803131,282.305481,262.194153z"/>
					</g>
					<g>
						<path class="st23" d="M105.102219,267.356476v-14.863007c0-2.529633-0.042877-7.093048-8.742676-7.093048
							c-3.290565,0-5.542404,0.641632-6.75415,1.031616c-1.470673,0.470917-1.938225,1.02861-1.938225,1.765869v19.199707
							c0,0.735809,0.210068,0.818237,0.816696,0.818237h2.120186c0.603676,0,0.914413-0.082428,0.914413-0.859375v-17.651672
							c0-0.996216,1.64225-1.977798,4.667984-1.977798c5.058571,0,5.058571,3.225739,5.058571,5.250626v14.378845
							c0,0.776947,0.267792,0.859375,0.958733,0.859375h2.382133
							C105.059341,268.133423,105.102219,267.740509,105.102219,267.356476z"/>
					</g>
					<path class="st23" d="M128.010132,257.155457c0-5.166718-1.648163-8.482208-4.154533-10.158325
						c-1.562408-1.07872-3.638275-1.59671-5.63414-1.59671c-1.988525,0-4.062874,0.51799-5.62233,1.59671
						c-2.509323,1.676117-4.150131,4.991608-4.150131,10.158325c0,5.122528,1.640808,8.435089,4.150131,10.114136
						c1.559456,1.075775,3.633804,1.601105,5.62233,1.601105c1.995865,0,4.071732-0.52533,5.63414-1.601105
						C126.361969,265.590546,128.010132,262.277985,128.010132,257.155457z M124.030136,257.155457
						c0,4.049774-0.825562,6.663269-2.037308,7.793457c-1.170311,1.119904-2.248962,1.418671-3.77137,1.418671
						c-1.507721,0-2.590759-0.298767-3.764023-1.418671c-1.207283-1.130188-2.028442-3.743683-2.028442-7.793457
						c0-4.096893,0.821159-6.710464,2.028442-7.846512c1.173264-1.111038,2.256302-1.41272,3.764023-1.41272
						c1.522408,0,2.601059,0.301682,3.77137,1.41272C123.204575,250.444992,124.030136,253.058563,124.030136,257.155457z"/>
					<path class="st23" d="M167.551239,257.155457c0-5.166718-1.643768-8.482208-4.157562-10.158325
						c-1.557938-1.07872-3.630768-1.59671-5.626709-1.59671c-1.992996,0-4.070297,0.51799-5.629684,1.59671
						c-2.504929,1.676117-4.151642,4.991608-4.151642,10.158325c0,5.122528,1.646713,8.435089,4.151642,10.114136
						c1.559387,1.075775,3.636688,1.601105,5.629684,1.601105c1.995941,0,4.068771-0.52533,5.626709-1.601105
						C165.907471,265.590546,167.551239,262.277985,167.551239,257.155457z M163.574203,257.155457
						c0,4.049774-0.822601,6.663269-2.041779,7.793457c-1.171829,1.119904-2.250397,1.418671-3.765457,1.418671
						c-1.510605,0-2.596588-0.298767-3.768417-1.418671c-1.210312-1.130188-2.029968-3.743683-2.029968-7.793457
						c0-4.096893,0.819656-6.710464,2.029968-7.846512c1.171829-1.111038,2.257812-1.41272,3.768417-1.41272
						c1.51506,0,2.593628,0.301682,3.765457,1.41272C162.751602,250.444992,163.574203,253.058563,163.574203,257.155457z"/>
					<g>
						<path class="st23" d="M147.627548,246.35405c0-0.440002-0.346191-0.440002-0.563675-0.440002h-2.161621
							c-0.307785,0.039703-0.390656,0.16922-0.520798,0.604797l-5.628235,16.399277l-5.845718-16.310974
							c-0.214539-0.606308-0.300369-0.6931-0.951385-0.6931h-2.635071c-0.179016,0-0.608078,0-0.608078,0.51799
							c0,0.17511,0.075455,0.386978,0.173096,0.604797l7.831284,20.496185c0.217499,0.513611,0.304764,0.647491,0.64505,0.682831
							h1.695572c0.511948,0,0.606644-0.035339,0.824127-0.640137l7.572357-20.538879
							C147.627548,246.518845,147.627548,246.432037,147.627548,246.35405z"/>
					</g>
				</g>
			</g>
			<g>
				<g>
					<path class="st23" d="M305.705841,231.327942h1.373047c0.733887,0,1.89679,0,1.89679,1.106598
						c0,1.122864-1.236908,1.122864-1.805054,1.122864h-1.464783V231.327942z M304.498566,237.732269h1.207275v-3.144821h0.710205
						c0.961761,0,1.322723,0.37085,2.22525,1.977814l0.662842,1.167007h1.467712l-0.908447-1.436295
						c-0.926147-1.483322-1.301971-1.708527-1.731018-1.867432v-0.035339c1.547546-0.088303,2.124573-1.247864,2.124573-2.071976
						c0-0.600357-0.284088-1.130173-0.716095-1.483322c-0.618469-0.529755-1.59787-0.529755-2.461975-0.529755h-2.580322V237.732269
						z M307.460846,227.093994c-3.802429,0-6.945068,3.054947-6.945068,6.906128c0,3.814331,3.107117,6.903183,6.945068,6.903183
						c3.846802,0,6.936188-3.102112,6.936188-6.903183C314.397034,230.172516,311.272217,227.093994,307.460846,227.093994z
						 M307.446075,228.247681c3.207703,0,5.805725,2.560532,5.805725,5.752441c0,3.171265-2.598022,5.761246-5.805725,5.761246
						c-3.198822,0-5.785034-2.589981-5.785034-5.761246C301.661041,230.808212,304.247253,228.247681,307.446075,228.247681z"/>
				</g>
			</g>
		</g>
	</g>
	<g>
		<path class="st23" d="M143.726471,159.020676c1.787949,2.530258,5.356293-1.677856,5.042206-2.459
			C148.455475,155.783112,141.954926,156.495865,143.726471,159.020676z"/>
		<path class="st23" d="M157.833435,142.760666c9.406616,0,17.031052-7.597672,17.031052-16.947884
			c0-9.355934-7.624435-16.942101-17.031052-16.942101c-9.406631,0-17.033722,7.586166-17.033722,16.942101
			C140.799713,135.162994,148.426804,142.760666,157.833435,142.760666z M158.298141,112.825996
			c6.235641,0,11.288467,5.031387,11.288467,11.233322c0,6.204628-5.052826,11.230461-11.288467,11.230461
			c-6.238297,0-11.305756-5.025833-11.305756-11.230461C146.992386,117.857384,152.059845,112.825996,158.298141,112.825996z"/>
		<path class="st23" d="M243.368652,172.685944c-2.292923-10.721741-11.613098-11.053711-16.587967-10.674881
			c-5.118713,0.389771-14.837845,1.909912-24.791245,1.909912c-13.504028,0-28.607239-3.776169-40.223633-9.14241
			c-2.010651-0.928818-1.010574-1.316254-0.095688-1.810349c4.354248-2.351562,8.145798-4.535156,10.448517-8.262283
			c1.762741-2.853668,1.089417-3.7715-0.858032-2.170013c-5.268188,4.33226-12.75531,6.755707-21.138123,3.789108
			c-8.382904-2.966599-11.628693-10.999985-12.373825-13.025787c-0.736267-2.023132-1.785294-2.172501-1.785294,0.793472
			c0,7.48053,3.331375,12.012878,4.441544,13.306229c1.114563,1.286926,1.629868,2.560715,1.01355,3.304413
			c-1.636276,1.974548-3.437943,4.085007-3.505981,4.932861c-0.071335,0.888123,0.012909,1.377609-0.350327,2.427277
			c-0.363251,1.049698-1.720154,2.540848-3.777863,5.121552c-1.173126,1.479523-0.456345,3.037415,0.532455,4.129303
			c1.193024,1.304749,1.952713,2.809204,3.407181,3.486557c1.454376,0.677338,2.814896,0.176666,4.509827,0.487885
			c1.667831,0.306229,3.764847,1.278671,5.411469,4.210831c2.380707,4.253296,4.984665,10.882553,9.621964,16.401031
			c2.071411,2.451828,2.062561,6.877609,2.071411,8.370956c0.133347,12.874969-6.674179,25.057663-11.000076,32.779312
			c-1.025528,1.834045-0.817322,3.34549,0.563934,3.357178c1.574417,0.016953,7.475922,0,8.423462,0
			c1.132874,0,1.75499-1.182495,1.83728-2.390762c0.716553-10.519577,6.714111-29.868729,11.250809-33.174133
			c7.602921,4.704712,15.148056,14.828659,11.454376,32.483521c-0.199188,0.951935-1.089569,3.086624,1.17627,3.086624
			c0,0,6.409836,0,7.306076,0c0.926712,0,2.442963-0.362625,2.349548-2.055557
			c-0.38118-6.910461-6.177124-21.467178-7.710831-30.057449c-0.969315-5.429092,3.38353-15.089584,19.764862-7.672302
			c6.335052-5.600311,14.568069-2.192596,11.050964,8.614731c-3.481628,10.698669-6.503723,15.483994-18.442398,28.104477
			c-1.368576,1.446747-1.439667,3.075012,0.711456,3.075012c1.072113,0,6.563293-0.008911,7.668304-0.008911
			c1.644745,0,2.30545-0.457672,2.813644-1.779114c0.508255-1.321442,5.937271-18.510284,16.669876-26.539307
			c0.829849-0.620773,1.543884-3.378067,3.20726-9.604919c5.221207,6.745178,5.85733,19.094147-2.990204,34.972763
			c-0.92453,1.651962-0.346893,2.945328,0.707932,2.945328c0.621094,0,5.45195,0,6.949326,0
			c1.294891,0,1.66832-0.698654,2.173294-2.625153c0.618042-2.3582,0.846832-3.514267,1.667831-5.814041
			c0.509125-1.426178,0.744431-1.655807,6.241486-1.59787c1.757263,0.018524,1.675049-0.916885,1.675049-2.381927
			C244.858124,202.49469,244.993454,180.283524,243.368652,172.685944z M223.817017,165.579651
			c1.79985,3.277603,1.897339,5.196426,1.381882,6.838028c-0.515549,1.641586-2.809799,2.565292-3.312668,2.390594
			c-0.060684-3.516815-1.014008-6.185867-2.676834-8.597946C220.743027,165.979523,222.278458,165.751053,223.817017,165.579651z
			 M209.573257,167.282242c1.039703,3.873627,0.910355,8.964935-0.556808,10.44725
			c-2.314697,2.339386-12.799622,1.866547-15.818176,1.413055c-0.777466-0.116714-1.672775-0.265244-2.06218-2.372635
			c-0.464249-2.507401-0.572311-7.077484-0.716766-10.119995C196.764008,167.476593,203.187943,167.688492,209.573257,167.282242z
			 M172.273987,174.647705c0.856247-2.827072,1.735809-7.56633,2.192551-11.43248
			c2.031555,0.616196,4.082214,1.169159,6.149246,1.652832c-1.390884,8.829041-4.169922,11.313263-5.63739,11.898972
			C173.849045,177.217789,171.417755,177.474792,172.273987,174.647705z M153.519073,179.294449
			c-1.788818-2.340515-4.112518-7.993576-6.126373-9.574982c-3.866882-3.039047-7.207977-0.658218-8.726181-2.464508
			c-1.615997-1.934219-2.276947-2.078796-0.766815-3.921371c0,0,1.700424-2.259308,2.411713-3.213882
			c0.711304-0.954559,0.577637-2.798355,0.863373-3.593887c0.282669-0.792328,2.052216-3.117111,3.784821-4.618881
			c1.914642-1.659454,3.488998-0.930069,9.513107,2.688766c7.317993,4.396027,9.554779,3.444595,7.048004,7.389679
			C159.936584,164.478348,154.778885,171.131561,153.519073,179.294449z M234.042053,176.604202
			c-0.405518,6.601379-1.876907,15.931168-4.160049,16.93573c-2.283218,1.004562-5.834305-5.057724-24.386963-5.388824
			c-13.17572-0.235123-23.298798,1.495163-25.158325,13.450912c-0.135391,0.870392-0.641464,0.705093-1.014328,0.302948
			c-3.617035-3.90123-6.91011-5.638611-12.242828-8.727325c-5.332779-3.08873-8.896561-7.315125-9.559387-11.447845
			c-0.662827-4.132751,0.833298-9.692062,8.373352-19.835541c1.046661-1.408066,1.23584-1.278931,5.443024,0.307526
			c-0.322281,6.776657-1.998428,10.587646-2.702759,14.08812c-0.714661,3.551865,3.25824,4.319565,6.748108,3.501144
			c3.489853-0.818405,6.809402-4.473511,8.272324-14.26236c1.369278,0.27774,2.456268,0.474091,3.836273,0.693863
			c0.199677,10.150543,0.79657,12.469711,1.212982,13.419891c0.819122,1.868896,2.712158,2.485947,4.249863,2.606949
			c8.033279,0.632172,15.800171,0.369736,18.581009-2.328979c2.780823-2.698715,1.821075-9.292908,1.057785-12.877228
			c1.256363-0.117477,2.329727-0.233551,3.580765-0.399673c2.611313,3.058853,2.974319,6.342819,2.974319,8.48909
			c0,2.329483,2.587662,3.534988,6.224182,1.048462s3.229813-6.860733,1.284622-10.833817
			C234.89093,164.605331,234.447662,170.002808,234.042053,176.604202z M240.154022,208.993988
			c-0.126038,0.963531-1.064972,1.749619-1.291153-0.247131c-0.290741-2.566681-1.625992-8.413406-2.057983-10.870392
			c-0.404755-2.302307,0.834305-9.32872,1.286102-15.161072c0.038925-0.502747,0.612854-0.486404,0.961868-0.120712
			C241.55127,185.212387,240.673752,205.020538,240.154022,208.993988z"/>
	</g>
</g>
</svg>
